<svg width="47" height="45" viewBox="0 0 47 45" fill="none" xmlns="http://www.w3.org/2000/svg">
<path d="M18.1214 42.1198C19.1478 42.1198 19.9799 41.2876 19.9799 40.2612C19.9799 39.2347 19.1478 38.4026 18.1214 38.4026C17.0949 38.4026 16.2628 39.2347 16.2628 40.2612C16.2628 41.2876 17.0949 42.1198 18.1214 42.1198Z" stroke="#5CA720" stroke-width="4.77037" stroke-linecap="round" stroke-linejoin="round"/>
<path d="M38.5661 42.1198C39.5926 42.1198 40.4247 41.2876 40.4247 40.2612C40.4247 39.2347 39.5926 38.4026 38.5661 38.4026C37.5397 38.4026 36.7076 39.2347 36.7076 40.2612C36.7076 41.2876 37.5397 42.1198 38.5661 42.1198Z" stroke="#5CA720" stroke-width="4.77037" stroke-linecap="round" stroke-linejoin="round"/>
<path d="M3.25243 3.08887H10.6868L15.6678 27.9753C15.8377 28.831 16.3032 29.5997 16.9828 30.1467C17.6624 30.6938 18.5127 30.9844 19.385 30.9677H37.4504C38.3226 30.9844 39.173 30.6938 39.8525 30.1467C40.5321 29.5997 40.9976 28.831 41.1676 27.9753L44.1413 12.3818H12.5454" stroke="#5CA720" stroke-width="4.77037" stroke-linecap="round" stroke-linejoin="round"/>
</svg>
