<svg width="72" height="56" viewBox="0 0 72 56" fill="none" xmlns="http://www.w3.org/2000/svg">
<path d="M13.0648 55.5861V51.8887C13.0648 50.471 12.2019 49.5469 10.7228 49.5469C9.98337 49.5469 9.18219 49.7934 8.62749 50.5946C8.1963 49.9166 7.58012 49.5469 6.6557 49.5469C6.03924 49.5469 5.42334 49.7316 4.93011 50.4096V49.6701H3.63599V55.5861H4.93011V52.3199C4.93011 51.2725 5.48482 50.7793 6.34775 50.7793C7.21013 50.7793 7.64188 51.334 7.64188 52.3199V55.5861H8.936V52.3199C8.936 51.2725 9.5519 50.7793 10.3531 50.7793C11.216 50.7793 11.6472 51.334 11.6472 52.3199V55.5861H13.0648ZM32.23 49.6701H30.1349V47.8831H28.8408V49.6701H27.6699V50.8407H28.8405V53.5525C28.8405 54.9084 29.3952 55.7093 30.8744 55.7093C31.4291 55.7093 32.045 55.5246 32.4767 55.2781L32.1067 54.1687C31.737 54.4152 31.3058 54.4769 30.9976 54.4769C30.3814 54.4769 30.1349 54.1072 30.1349 53.4908V50.8407H32.23V49.6701ZM43.1994 49.5466C42.46 49.5466 41.967 49.9166 41.6588 50.4096V49.6701H40.3647V55.5861H41.6588V52.2584C41.6588 51.2725 42.09 50.7178 42.8912 50.7178C43.1377 50.7178 43.4459 50.7796 43.6924 50.841L44.0621 49.6087C43.8156 49.5469 43.4459 49.5469 43.1994 49.5469V49.5466ZM26.6223 50.1631C26.0058 49.7316 25.1432 49.5469 24.2187 49.5469C22.7399 49.5469 21.754 50.2863 21.754 51.4572C21.754 52.4434 22.4934 52.9978 23.7875 53.1828L24.4037 53.2446C25.0817 53.3675 25.4514 53.5525 25.4514 53.8608C25.4514 54.2919 24.9584 54.6002 24.0955 54.6002C23.2328 54.6002 22.5549 54.2919 22.1234 53.984L21.5072 54.9699C22.1852 55.4628 23.1096 55.7093 24.0337 55.7093C25.7593 55.7093 26.7455 54.9084 26.7455 53.799C26.7455 52.7513 25.9443 52.1966 24.7117 52.0119L24.0955 51.9502C23.5408 51.8884 23.1096 51.7654 23.1096 51.3957C23.1096 50.9643 23.5408 50.7178 24.2187 50.7178C24.9584 50.7178 25.6979 51.0257 26.0676 51.2107L26.6223 50.1631ZM61.0092 49.5469C60.2695 49.5469 59.7766 49.9166 59.4683 50.4096V49.6701H58.1742V55.5861H59.4683V52.2584C59.4683 51.2725 59.8998 50.7178 60.7007 50.7178C60.9474 50.7178 61.2557 50.7796 61.5021 50.841L61.8719 49.6087C61.6254 49.5469 61.2557 49.5469 61.0092 49.5469ZM44.4935 52.6281C44.4935 54.4152 45.7259 55.7093 47.6365 55.7093C48.4991 55.7093 49.1153 55.5246 49.7315 55.0316L49.1153 53.984C48.6224 54.3537 48.1294 54.5384 47.5747 54.5384C46.5271 54.5384 45.7877 53.799 45.7877 52.6281C45.7877 51.519 46.5271 50.7793 47.5747 50.7178C48.1294 50.7178 48.6224 50.9025 49.1153 51.2725L49.7315 50.2248C49.1153 49.7316 48.4991 49.5469 47.6365 49.5469C45.7259 49.5469 44.4935 50.841 44.4935 52.6281ZM56.4489 52.6281V49.6701H55.1548V50.4096C54.7233 49.8551 54.1071 49.5469 53.3059 49.5469C51.6421 49.5469 50.348 50.841 50.348 52.6281C50.348 54.4152 51.6421 55.7093 53.3059 55.7093C54.1686 55.7093 54.7851 55.4013 55.1548 54.8466V55.5861H56.4489V52.6281ZM51.7036 52.6281C51.7036 51.5805 52.3815 50.7178 53.4906 50.7178C54.5383 50.7178 55.278 51.519 55.278 52.6281C55.278 53.6758 54.5383 54.5384 53.4906 54.5384C52.3815 54.4767 51.7036 53.6758 51.7036 52.6281ZM36.2358 49.5469C34.5103 49.5469 33.2776 50.7793 33.2776 52.6281C33.2776 54.4769 34.51 55.7093 36.2973 55.7093C37.16 55.7093 38.0229 55.4628 38.7009 54.9084L38.0844 53.984C37.5914 54.3537 36.9753 54.6002 36.3591 54.6002C35.5579 54.6002 34.7567 54.2305 34.5717 53.1825H38.9473V52.6899C39.0091 50.7793 37.8997 49.5469 36.2356 49.5469H36.2358ZM36.2358 50.656C37.0367 50.656 37.5917 51.1493 37.7147 52.0737H34.6335C34.7567 51.2725 35.3114 50.656 36.2358 50.656ZM68.3425 52.6281V47.3284H67.0484V50.4096C66.6169 49.8551 66.0007 49.5469 65.1995 49.5469C63.5357 49.5469 62.2416 50.841 62.2416 52.6281C62.2416 54.4152 63.5357 55.7093 65.1995 55.7093C66.0625 55.7093 66.6786 55.4013 67.0484 54.8466V55.5861H68.3425V52.6281ZM63.5974 52.6281C63.5974 51.5805 64.2751 50.7178 65.3845 50.7178C66.4322 50.7178 67.1716 51.519 67.1716 52.6281C67.1716 53.6758 66.4322 54.5384 65.3845 54.5384C64.2751 54.4767 63.5974 53.6758 63.5974 52.6281ZM20.3364 52.6281V49.6701H19.0422V50.4096C18.6108 49.8551 17.9946 49.5469 17.1934 49.5469C15.5296 49.5469 14.2355 50.841 14.2355 52.6281C14.2355 54.4152 15.5296 55.7093 17.1934 55.7093C18.0563 55.7093 18.6725 55.4013 19.0422 54.8466V55.5861H20.3364V52.6281ZM15.5296 52.6281C15.5296 51.5805 16.2075 50.7178 17.3166 50.7178C18.3643 50.7178 19.104 51.519 19.104 52.6281C19.104 53.6758 18.3643 54.5384 17.3166 54.5384C16.2075 54.4767 15.5296 53.6758 15.5296 52.6281Z" fill="black"/>
<path d="M26.1906 4.745H45.6025V39.6249H26.1906V4.745Z" fill="#FF5F00"/>
<path d="M27.4234 22.1851C27.4234 15.0983 30.751 8.8124 35.8658 4.74503C32.1069 1.78707 27.3619 0 22.1854 0C9.92153 0 0 9.92153 0 22.1851C0 34.4484 9.92153 44.3702 22.1851 44.3702C27.3616 44.3702 32.1066 42.5831 35.8658 39.6249C30.751 35.6193 27.4234 29.2719 27.4234 22.1851Z" fill="#EB001B"/>
<path d="M71.7934 22.1851C71.7934 34.4484 61.8719 44.3702 49.6083 44.3702C44.4318 44.3702 39.6868 42.5831 35.9277 39.6249C41.1042 35.5578 44.3704 29.2719 44.3704 22.1851C44.3704 15.0983 41.0424 8.8124 35.9277 4.74503C39.6865 1.78707 44.4318 0 49.6083 0C61.8719 0 71.7937 9.98328 71.7937 22.1851H71.7934Z" fill="#F79E1B"/>
</svg>
