<svg width="37" height="43" viewBox="0 0 37 43" fill="none" xmlns="http://www.w3.org/2000/svg">
<path d="M30.7184 3.18492C28.7626 0.955715 25.2272 0 20.7043 0H7.57783C7.13034 1.65695e-05 6.69753 0.159666 6.35721 0.450244C6.0169 0.740823 5.79141 1.14327 5.72128 1.58523L0.255639 36.2496C0.146999 36.9332 0.676299 37.5522 1.36912 37.5522H9.47297L11.5082 24.6431L11.445 25.0473C11.59 24.1349 12.3704 23.4618 13.2946 23.4618H17.1455C24.7107 23.4618 30.6343 20.3891 32.3647 11.5002C32.416 11.2373 32.4605 10.9814 32.499 10.7314C32.2806 10.6157 32.2806 10.6157 32.499 10.7314C33.0142 7.44599 32.4955 5.20962 30.7184 3.18492Z" fill="#27346A"/>
<path d="M14.609 9.54788C14.8306 9.44239 15.0729 9.38772 15.3183 9.38787H25.6092C26.8279 9.38787 27.9645 9.46718 29.0032 9.63435C29.2938 9.68069 29.583 9.73602 29.8702 9.80025C30.2773 9.89009 30.6797 10 31.0759 10.1297C31.5865 10.3002 32.062 10.4988 32.4991 10.7314C33.0142 7.44472 32.4955 5.20962 30.7184 3.18492C28.7615 0.955715 25.2272 0 20.7043 0H7.5767C6.65243 0 5.86613 0.672888 5.72128 1.58523L0.255639 36.2484C0.147 36.9331 0.6763 37.5512 1.368 37.5512H9.47298L13.6954 10.7746C13.737 10.5114 13.8418 10.2623 14.0009 10.0486C14.1601 9.83489 14.3688 9.66306 14.609 9.54788Z" fill="#27346A"/>
<path d="M32.365 11.5001C30.6346 20.3877 24.7111 23.4617 17.1458 23.4617H13.2938C12.3697 23.4617 11.5891 24.1348 11.4455 25.0473L8.91356 41.0982C8.81895 41.6964 9.28158 42.2385 9.88682 42.2385H16.7182C17.1095 42.2384 17.4879 42.0987 17.7854 41.8444C18.0829 41.5902 18.28 41.2382 18.3412 40.8517L18.4077 40.5036L19.6952 32.3436L19.7782 31.8926C19.8393 31.5062 20.0363 31.1542 20.3338 30.9C20.6313 30.6458 21.0097 30.506 21.401 30.5059H22.4234C29.041 30.5059 34.2227 27.8174 35.7369 20.042C36.3689 16.7927 36.0419 14.0798 34.3699 12.1742C33.8628 11.5971 33.233 11.1204 32.4993 10.7313C32.4596 10.9826 32.4165 11.2372 32.365 11.5001Z" fill="#2790C3"/>
<path d="M30.6882 10.0094C30.4184 9.93057 30.146 9.86082 29.8715 9.80022C29.5842 9.73703 29.2951 9.68208 29.0045 9.63544C27.9648 9.46714 26.829 9.3877 25.6092 9.3877H15.3195C15.074 9.38714 14.8315 9.44228 14.6103 9.54897C14.3698 9.6638 14.1608 9.83552 14.0016 10.0493C13.8424 10.263 13.7377 10.5124 13.6965 10.7757L11.5094 24.6431L11.4463 25.0473C11.5902 24.1348 12.3706 23.4618 13.2948 23.4618H17.1469C24.712 23.4618 30.6355 20.389 32.3659 11.5001C32.4174 11.2372 32.4606 10.9825 32.5004 10.7314C32.0622 10.5001 31.5879 10.3002 31.0771 10.1308C30.9482 10.088 30.8185 10.0476 30.6882 10.0094Z" fill="#1F264F"/>
</svg>
