<svg width="54" height="54" viewBox="0 0 54 54" fill="none" xmlns="http://www.w3.org/2000/svg">
<path d="M51.8766 0H3.03704C1.8625 0 0.913574 0.948922 0.913574 2.12346V50.9631C0.913574 52.1376 1.8625 53.0865 3.03704 53.0865H51.8766C53.0512 53.0865 54.0001 52.1376 54.0001 50.9631V2.12346C54.0001 0.948922 53.0512 0 51.8766 0ZM49.7532 48.8396H37.5367V32.5288H44.4379L45.4731 24.5193H37.5367V19.4031C37.5367 17.0806 38.1803 15.5013 41.5049 15.5013H45.7452V8.33459C45.0086 8.23505 42.4936 8.01607 39.5606 8.01607C33.4424 8.01607 29.2551 11.752 29.2551 18.6068V24.5127H22.3406V32.5221H29.2618V48.8396H5.1605V4.24692H49.7532V48.8396Z" fill="#5CA720"/>
</svg>
