<svg width="54" height="54" viewBox="0 0 54 54" fill="none" xmlns="http://www.w3.org/2000/svg">
<path d="M26.5187 12.9153C18.987 12.9153 12.9086 18.9937 12.9086 26.5253C12.9086 34.057 18.987 40.1354 26.5187 40.1354C34.0504 40.1354 40.1288 34.057 40.1288 26.5253C40.1288 18.9937 34.0504 12.9153 26.5187 12.9153ZM26.5187 35.3709C21.648 35.3709 17.6732 31.396 17.6732 26.5253C17.6732 21.6546 21.648 17.6798 26.5187 17.6798C31.3894 17.6798 35.3642 21.6546 35.3642 26.5253C35.3642 31.396 31.3894 35.3709 26.5187 35.3709ZM40.6862 9.18594C38.9277 9.18594 37.5076 10.606 37.5076 12.3645C37.5076 14.123 38.9277 15.5431 40.6862 15.5431C42.4447 15.5431 43.8647 14.1296 43.8647 12.3645C43.8653 11.9469 43.7834 11.5334 43.6238 11.1475C43.4643 10.7616 43.2302 10.411 42.9349 10.1158C42.6397 9.82049 42.289 9.58638 41.9032 9.42683C41.5173 9.26728 41.1037 9.18542 40.6862 9.18594ZM53.0487 26.5253C53.0487 22.8624 53.0819 19.2326 52.8762 15.5762C52.6705 11.3293 51.7016 7.56017 48.5961 4.45461C45.4839 1.34241 41.7214 0.380215 37.4744 0.174505C33.8115 -0.0312054 30.1817 0.00197378 26.5253 0.00197378C22.8624 0.00197378 19.2326 -0.0312054 15.5762 0.174505C11.3293 0.380215 7.56017 1.34904 4.45461 4.45461C1.34241 7.5668 0.380215 11.3293 0.174505 15.5762C-0.0312054 19.2392 0.00197378 22.869 0.00197378 26.5253C0.00197378 30.1817 -0.0312054 33.8181 0.174505 37.4744C0.380215 41.7214 1.34904 45.4905 4.45461 48.5961C7.56681 51.7083 11.3293 52.6704 15.5762 52.8762C19.2392 53.0819 22.869 53.0487 26.5253 53.0487C30.1883 53.0487 33.8181 53.0819 37.4744 52.8762C41.7214 52.6704 45.4905 51.7016 48.5961 48.5961C51.7083 45.4839 52.6705 41.7214 52.8762 37.4744C53.0885 33.8181 53.0487 30.1883 53.0487 26.5253ZM47.2092 42.1726C46.7248 43.3803 46.1408 44.2828 45.2052 45.2118C44.2695 46.1474 43.3737 46.7314 42.166 47.2158C38.6755 48.6027 30.3874 48.2908 26.5187 48.2908C22.65 48.2908 14.3552 48.6027 10.8648 47.2224C9.65709 46.738 8.75462 46.1541 7.8256 45.2184C6.88995 44.2828 6.306 43.3869 5.82159 42.1792C4.44134 38.6821 4.75322 30.394 4.75322 26.5253C4.75322 22.6567 4.44134 14.3619 5.82159 10.8714C6.306 9.66372 6.88995 8.76125 7.8256 7.83224C8.76125 6.90322 9.65709 6.31264 10.8648 5.82822C14.3552 4.44797 22.65 4.75985 26.5187 4.75985C30.3874 4.75985 38.6822 4.44797 42.1726 5.82822C43.3803 6.31264 44.2828 6.89659 45.2118 7.83224C46.1474 8.76789 46.7314 9.66372 47.2158 10.8714C48.5961 14.3619 48.2842 22.6567 48.2842 26.5253C48.2842 30.394 48.5961 38.6821 47.2092 42.1726Z" fill="#5CA720"/>
</svg>
