<svg width="72" height="24" viewBox="0 0 72 24" fill="none" xmlns="http://www.w3.org/2000/svg">
<path d="M37.1902 8.21225C37.1492 11.445 40.0712 13.2489 42.2724 14.3216C44.5339 15.422 45.2935 16.1277 45.2845 17.1119C45.2677 18.618 43.4806 19.2828 41.8083 19.3086C38.8908 19.3538 37.1944 18.5209 35.8458 17.8909L34.7948 22.8089C36.1479 23.4324 38.6533 23.9761 41.2514 24C47.35 24 51.3399 20.9895 51.3615 16.322C51.3854 10.3982 43.1679 10.0703 43.224 7.42258C43.2434 6.61972 44.0095 5.76296 45.6882 5.54512C46.5191 5.43507 48.8129 5.35086 51.4135 6.54841L52.4342 1.79019C51.0356 1.28096 49.2382 0.79335 47.0003 0.79335C41.2601 0.79335 37.2228 3.84479 37.1902 8.21225ZM62.242 1.2032C61.1284 1.2032 60.1899 1.85279 59.7711 2.84963L51.0595 23.6505H57.1537L58.3664 20.299H65.8133L66.5168 23.6505H71.8882L67.201 1.2032H62.242ZM63.0946 7.26706L64.8533 15.6963H60.0367L63.0946 7.26706ZM29.8013 1.20348L24.9976 23.6502H30.8049L35.6064 1.20292H29.8013V1.20348ZM21.2104 1.20292L15.1659 16.4817L12.7209 3.4908C12.434 2.04059 11.301 1.2032 10.0428 1.2032H0.161955L0.0235596 1.85504C2.05205 2.29521 4.35677 3.00515 5.75308 3.76478C6.60759 4.22882 6.85126 4.63446 7.13198 5.73713L11.763 23.6505H17.8999L27.3085 1.2032H21.2104" fill="url(#paint0_linear)"/>
<defs>
<linearGradient id="paint0_linear" x1="33.0626" y1="24.4655" x2="33.7343" y2="0.631956" gradientUnits="userSpaceOnUse">
<stop stop-color="#222357"/>
<stop offset="1" stop-color="#254AA5"/>
</linearGradient>
</defs>
</svg>
