<svg width="761" height="666" viewBox="0 0 761 666" fill="none" xmlns="http://www.w3.org/2000/svg">
<path fill-rule="evenodd" clip-rule="evenodd" d="M587.696 301.946C623.323 309.842 660.65 311.093 689.904 332.907C722.377 357.122 751.649 389.566 758.694 429.457C765.806 469.723 742.913 507.133 727.353 544.946C710.108 586.853 705.435 644.269 663.368 661.113C620.922 678.11 578.791 636.404 535.472 621.779C501.081 610.169 461.492 610.258 436.048 584.37C410.645 558.525 408.203 519.858 400.491 484.448C392.186 446.317 376.02 407.379 389.525 370.765C403.759 332.179 435.189 298.556 474.038 285.065C511.128 272.185 549.364 293.45 587.696 301.946Z" fill="#E7E6E6" fill-opacity="0.66"/>
<path fill-rule="evenodd" clip-rule="evenodd" d="M145.05 52.2681C200.505 41.7269 258.867 -25.4001 302.483 10.4316C346.178 46.3282 293.604 116.774 292.389 173.311C291.459 216.648 316.706 260.098 296.299 298.341C272.699 342.567 229.894 381.076 179.862 384.188C130.843 387.238 87.8471 351.58 57.1788 313.219C32.2372 282.021 40.5649 239.736 33.0186 200.513C24.0865 154.087 -18.8701 103.817 9.63406 66.0988C38.0729 28.4673 98.7112 61.0766 145.05 52.2681Z" fill="#E7E6E6" fill-opacity="0.66"/>
</svg>
