<svg width="1744" height="732" viewBox="0 0 1744 732" fill="none" xmlns="http://www.w3.org/2000/svg">
<path fill-rule="evenodd" clip-rule="evenodd" d="M225.723 216.226C307.875 200.61 394.335 101.166 458.95 154.248C523.681 207.427 445.796 311.788 443.997 395.543C442.618 459.744 480.02 524.113 449.788 580.768C414.826 646.286 351.414 703.334 277.294 707.945C204.677 712.463 140.98 659.637 95.5473 602.808C58.5978 556.591 70.9349 493.948 59.7555 435.842C46.5232 367.065 -17.1143 292.592 25.1128 236.716C67.2431 180.967 157.075 229.276 225.723 216.226Z" fill="#E7E6E6" fill-opacity="0.66"/>
<path fill-rule="evenodd" clip-rule="evenodd" d="M1479.37 51.2918C1528.06 62.0824 1579.07 63.7921 1619.05 93.6038C1663.43 126.695 1703.43 171.034 1713.06 225.55C1722.78 280.577 1691.49 331.702 1670.23 383.377C1646.66 440.649 1640.27 519.113 1582.78 542.133C1524.78 565.36 1467.2 508.365 1408 488.379C1361 472.512 1306.9 472.634 1272.13 437.255C1237.41 401.935 1234.07 349.093 1223.53 300.7C1212.18 248.59 1190.09 195.377 1208.55 145.341C1228 92.6085 1270.95 46.6599 1324.04 28.2223C1374.73 10.6198 1426.98 39.6818 1479.37 51.2918Z" fill="#96836F" fill-opacity="0.11"/>
</svg>
